# Agile Book on Stand - OBJ model
# Book (0.3 x 0.04 x 0.22) on stand (0.35 x 0.02 x 0.26)

# Stand base
o Stand
v -0.175 0.0  -0.130
v  0.175 0.0  -0.130
v  0.175 0.0   0.130
v -0.175 0.0   0.130
v -0.175 0.02  -0.130
v  0.175 0.02  -0.130
v  0.175 0.02   0.130
v -0.175 0.02   0.130

# Book cover (top face - visible)
o BookCover
v -0.150 0.04  -0.110
v  0.150 0.04  -0.110
v  0.150 0.04   0.110
v -0.150 0.04   0.110

# Book spine
v -0.150 0.02  -0.110
v -0.130 0.02  -0.110
v -0.130 0.04  -0.110
v -0.150 0.04  -0.110

# Book pages side (front face)
v -0.150 0.02  -0.110
v  0.150 0.02  -0.110
v  0.150 0.038 -0.110
v -0.150 0.038 -0.110

# Stand faces (12 triangles)
g Stand
usemtl StandMat
f 1 2 6
f 1 6 5
f 2 3 7
f 2 7 6
f 3 4 8
f 3 8 7
f 4 1 5
f 4 5 8
f 5 6 7
f 5 7 8
f 1 4 3
f 1 3 2

# Book cover (top, slightly tilted)
g BookCover
usemtl BookCoverMat
f 12 11 10
f 12 10 9

# Book spine
g BookSpine
usemtl BookSpineMat
f 16 15 14
f 16 14 13

# Book pages
g BookPages
usemtl BookPagesMat
f 20 19 18
f 20 18 17
